<svg width="14" height="14" viewBox="0 0 14 14" fill="none" xmlns="http://www.w3.org/2000/svg">
<path d="M5.00016 0.666626V1.99996H9.00016V0.666626H10.3335V1.99996H13.0002C13.3684 1.99996 13.6668 2.29844 13.6668 2.66663V13.3333C13.6668 13.7015 13.3684 14 13.0002 14H1.00016C0.631976 14 0.333496 13.7015 0.333496 13.3333V2.66663C0.333496 2.29844 0.631976 1.99996 1.00016 1.99996H3.66683V0.666626H5.00016ZM12.3335 7.33329H1.66683V12.6666H12.3335V7.33329ZM4.3335 8.66663V9.99996H3.00016V8.66663H4.3335ZM7.66683 8.66663V9.99996H6.3335V8.66663H7.66683ZM11.0002 8.66663V9.99996H9.66683V8.66663H11.0002ZM3.66683 3.33329H1.66683V5.99996H12.3335V3.33329H10.3335V4.66663H9.00016V3.33329H5.00016V4.66663H3.66683V3.33329Z" fill="#747474"/>
</svg>
