<svg width="20" height="20" viewBox="0 0 20 20" fill="none" xmlns="http://www.w3.org/2000/svg">
<path d="M8 5C8 8.866 11.134 12 15 12C16.9584 12 18.729 11.1957 19.9995 9.8995C20 9.933 20 9.9665 20 10C20 15.5228 15.5228 20 10 20C4.47715 20 0 15.5228 0 10C0 4.47715 4.47715 0 10 0C10.0335 0 10.067 -4.98258e-08 10.1005 0.00048995C8.8043 1.27098 8 3.04157 8 5ZM2 10C2 14.4183 5.58172 18 10 18C13.0583 18 15.7158 16.2839 17.062 13.7621C16.3945 13.9187 15.7035 14 15 14C10.0294 14 6 9.9706 6 5C6 4.29648 6.08133 3.60547 6.2379 2.938C3.71611 4.28423 2 6.9417 2 10Z" fill="white"/>
</svg>
